<svg width="19" height="15" viewBox="0 0 19 15" fill="none" xmlns="http://www.w3.org/2000/svg">
<path fill-rule="evenodd" clip-rule="evenodd" d="M0 0.833335C0 0.373101 0.398746 0 0.890625 0H5.9409C7.39827 0 8.69225 0.65509 9.50467 1.66785C10.317 0.655135 11.611 0 13.0684 0H18.1094C18.6012 0 19 0.373101 19 0.833335V12.5C19 12.9602 18.6012 13.3334 18.1094 13.3334H12.7568C12.0483 13.3334 11.3687 13.5968 10.8676 14.0656L10.1298 14.7559C9.78196 15.0814 9.21804 15.0814 8.87023 14.7559L8.13242 14.0656C7.63134 13.5968 6.95174 13.3334 6.24311 13.3334H0.890625C0.398746 13.3334 0 12.9602 0 12.5V0.833335ZM10.3966 4.16667C10.3966 2.78596 11.5928 1.66667 13.0684 1.66667H17.2188V11.6667H12.7568C11.9137 11.6667 11.0953 11.8905 10.3921 12.3027L10.3966 4.16667ZM8.61085 12.3045L8.61531 6.66747L8.61276 4.1643C8.61136 2.78451 7.41553 1.66667 5.9409 1.66667H1.78125V11.6667H6.24311C7.08743 11.6667 7.90702 11.891 8.61085 12.3045Z" fill="white"/>
</svg>
