<svg width="19" height="21" viewBox="0 0 19 21" fill="none" xmlns="http://www.w3.org/2000/svg">
<path fill-rule="evenodd" clip-rule="evenodd" d="M0 2.625C0 1.17525 1.14512 0 2.5577 0H6.21155C6.81694 0 7.30771 0.503685 7.30771 1.125C7.30771 1.74632 6.81694 2.25 6.21155 2.25H2.5577C2.3559 2.25 2.19231 2.4179 2.19231 2.625V18.375C2.19231 18.5821 2.3559 18.75 2.5577 18.75H6.21155C6.81694 18.75 7.30771 19.2537 7.30771 19.875C7.30771 20.4963 6.81694 21 6.21155 21H2.5577C1.14512 21 0 19.8248 0 18.375V2.625ZM15.2575 9.375H6.94235C6.33697 9.375 5.84619 9.87868 5.84619 10.5C5.84619 11.1213 6.33697 11.625 6.94235 11.625H15.2575L12.3788 14.5795C11.9507 15.0189 11.9507 15.7311 12.3788 16.1705C12.8069 16.6098 13.5008 16.6098 13.9289 16.1705L18.6789 11.2955C19.107 10.8562 19.107 10.1438 18.6789 9.7045L13.9289 4.8295C13.5008 4.39017 12.8069 4.39017 12.3788 4.8295C11.9507 5.26884 11.9507 5.98116 12.3788 6.4205L15.2575 9.375Z" fill="black"/>
</svg>
