<svg width="21" height="23" viewBox="0 0 21 23" fill="none" xmlns="http://www.w3.org/2000/svg">
<path fill-rule="evenodd" clip-rule="evenodd" d="M17.9845 2.2549H16.8605V0H14.6124V2.2549H5.62015V0H3.37209V2.2549H2.24806C1.00039 2.2549 0.0112403 3.26961 0.0112403 4.5098L0 20.2941C0 21.5343 1.00039 22.549 2.24806 22.549H17.9845C19.2209 22.549 20.2326 21.5343 20.2326 20.2941V4.5098C20.2326 3.26961 19.2209 2.2549 17.9845 2.2549ZM17.9845 20.2941H2.24809V7.89217H17.9845V20.2941ZM10.1163 10.1471H4.4961V15.7843H10.1163V10.1471Z" fill="black"/>
<mask id="mask0" mask-type="alpha" maskUnits="userSpaceOnUse" x="0" y="0" width="21" height="23">
<path fill-rule="evenodd" clip-rule="evenodd" d="M17.9845 2.2549H16.8605V0H14.6124V2.2549H5.62015V0H3.37209V2.2549H2.24806C1.00039 2.2549 0.0112403 3.26961 0.0112403 4.5098L0 20.2941C0 21.5343 1.00039 22.549 2.24806 22.549H17.9845C19.2209 22.549 20.2326 21.5343 20.2326 20.2941V4.5098C20.2326 3.26961 19.2209 2.2549 17.9845 2.2549ZM17.9845 20.2941H2.24809V7.89217H17.9845V20.2941ZM10.1163 10.1471H4.4961V15.7843H10.1163V10.1471Z" fill="white"/>
</mask>
<g mask="url(#mask0)">
</g>
</svg>
