<svg width="143" height="29" viewBox="0 0 143 29" fill="none" xmlns="http://www.w3.org/2000/svg">
<path d="M0.573 0.834999H5.595V19.063H14.616V23H0.573V0.834999ZM25.1715 19.931C26.4322 19.931 27.4035 19.497 28.0855 18.629C28.7882 17.761 29.1395 16.552 29.1395 15.002V14.785C29.1395 13.235 28.7882 12.026 28.0855 11.158C27.4035 10.2693 26.4322 9.825 25.1715 9.825C23.9315 9.825 22.9602 10.259 22.2575 11.127C21.5548 11.9743 21.2035 13.173 21.2035 14.723V14.971C21.2035 16.5417 21.5445 17.761 22.2265 18.629C22.9085 19.497 23.8902 19.931 25.1715 19.931ZM25.1405 23.341C22.6605 23.341 20.6352 22.5867 19.0645 21.078C17.4318 19.5693 16.6155 17.5647 16.6155 15.064V14.816C16.6155 12.3153 17.4318 10.2797 19.0645 8.709C20.6558 7.17967 22.6915 6.415 25.1715 6.415C27.6722 6.415 29.7078 7.16933 31.2785 8.678C32.8905 10.2487 33.6965 12.2637 33.6965 14.723V14.971C33.6965 17.4717 32.8802 19.5073 31.2475 21.078C29.6768 22.5867 27.6412 23.341 25.1405 23.341ZM44.2653 28.983C41.7027 28.983 39.76 28.4663 38.4373 27.433C37.1767 26.503 36.4327 25.139 36.2053 23.341H40.6693C40.9793 24.9117 42.178 25.697 44.2653 25.697C46.9933 25.697 48.3573 24.3743 48.3573 21.729V19.28C47.82 20.1893 47.138 20.8817 46.3113 21.357C45.3607 21.977 44.3067 22.287 43.1493 22.287C41.1033 22.287 39.4397 21.5947 38.1583 20.21C36.7737 18.7633 36.0813 16.8723 36.0813 14.537V14.32C36.0813 12.0053 36.7633 10.104 38.1273 8.616C39.4913 7.14867 41.186 6.415 43.2113 6.415C45.5467 6.415 47.262 7.345 48.3573 9.205V6.787H52.8213V21.729C52.8007 24.1057 52.0463 25.9037 50.5583 27.123C49.091 28.363 46.9933 28.983 44.2653 28.983ZM44.4823 18.908C45.681 18.908 46.642 18.5153 47.3653 17.73C48.1093 16.924 48.4813 15.839 48.4813 14.475V14.258C48.4813 12.8733 48.1403 11.7883 47.4583 11.003C46.7763 10.2177 45.8153 9.825 44.5753 9.825C43.3353 9.825 42.3743 10.228 41.6923 11.034C41.0103 11.84 40.6693 12.925 40.6693 14.289V14.537C40.6693 15.8803 41.0207 16.9447 41.7233 17.73C42.426 18.5153 43.3457 18.908 44.4823 18.908ZM64.7389 19.931C65.9996 19.931 66.9709 19.497 67.6529 18.629C68.3556 17.761 68.7069 16.552 68.7069 15.002V14.785C68.7069 13.235 68.3556 12.026 67.6529 11.158C66.9709 10.2693 65.9996 9.825 64.7389 9.825C63.4989 9.825 62.5275 10.259 61.8249 11.127C61.1222 11.9743 60.7709 13.173 60.7709 14.723V14.971C60.7709 16.5417 61.1119 17.761 61.7939 18.629C62.4759 19.497 63.4575 19.931 64.7389 19.931ZM64.7079 23.341C62.2279 23.341 60.2025 22.5867 58.6319 21.078C56.9992 19.5693 56.1829 17.5647 56.1829 15.064V14.816C56.1829 12.3153 56.9992 10.2797 58.6319 8.709C60.2232 7.17967 62.2589 6.415 64.7389 6.415C67.2396 6.415 69.2752 7.16933 70.8459 8.678C72.4579 10.2487 73.2639 12.2637 73.2639 14.723V14.971C73.2639 17.4717 72.4476 19.5073 70.8149 21.078C69.2442 22.5867 67.2086 23.341 64.7079 23.341ZM82.5617 23.31C79.069 23.31 77.3227 21.605 77.3227 18.195V9.98H75.2457V6.787H77.3227V3.284H81.7867V6.787H85.1967V9.98H81.7867V17.792C81.7867 19.0733 82.386 19.714 83.5847 19.714C84.246 19.714 84.8144 19.6107 85.2897 19.404V22.876C84.463 23.1653 83.5537 23.31 82.5617 23.31ZM93.5875 21.357L87.1395 6.787H91.9755L95.9125 16.521L99.5395 6.787H103.849L95.0755 28.518H90.7355L93.5875 21.357ZM106.642 6.787H111.137V9.329C111.612 8.48167 112.304 7.78933 113.214 7.252C114.144 6.694 115.177 6.415 116.314 6.415C118.36 6.415 120.034 7.128 121.336 8.554C122.7 10.042 123.382 12.0983 123.382 14.723V14.971C123.382 17.575 122.71 19.6313 121.367 21.14C120.085 22.6073 118.401 23.341 116.314 23.341C115.115 23.341 114.061 23.0827 113.152 22.566C112.242 22.0287 111.571 21.3467 111.137 20.52V28.518H106.642V6.787ZM114.981 19.838C116.221 19.838 117.171 19.435 117.833 18.629C118.494 17.8023 118.825 16.5933 118.825 15.002V14.754C118.825 13.142 118.473 11.9227 117.771 11.096C117.068 10.2693 116.128 9.856 114.95 9.856C113.73 9.856 112.759 10.2797 112.036 11.127C111.333 11.9537 110.982 13.1627 110.982 14.754V15.002C110.982 16.5933 111.333 17.8023 112.036 18.629C112.738 19.435 113.72 19.838 114.981 19.838ZM134.245 23.341C131.723 23.341 129.708 22.6073 128.2 21.14C126.588 19.652 125.782 17.637 125.782 15.095V14.847C125.782 12.3257 126.588 10.2797 128.2 8.709C129.77 7.17967 131.744 6.415 134.121 6.415C136.373 6.415 138.213 7.066 139.639 8.368C141.23 9.81467 142.026 11.9123 142.026 14.661V15.901H130.339C130.401 17.265 130.773 18.319 131.455 19.063C132.157 19.7863 133.129 20.148 134.369 20.148C136.311 20.148 137.438 19.3937 137.748 17.885H141.995C141.726 19.6417 140.92 20.9953 139.577 21.946C138.254 22.876 136.477 23.341 134.245 23.341ZM137.655 13.142C137.51 10.724 136.332 9.515 134.121 9.515C133.108 9.515 132.271 9.83533 131.61 10.476C130.969 11.096 130.566 11.9847 130.401 13.142H137.655Z" fill="white"/>
</svg>
